<svg width="28" height="28" viewBox="0 0 28 28" fill="none" xmlns="http://www.w3.org/2000/svg">
<g opacity="0.51">
<path opacity="0.4" d="M14.1866 12.6817C14.0699 12.67 13.9299 12.67 13.8016 12.6817C11.0249 12.5883 8.81995 10.3133 8.81995 7.51334C8.81995 4.65501 11.1299 2.33334 13.9999 2.33334C16.8583 2.33334 19.1799 4.65501 19.1799 7.51334C19.1683 10.3133 16.9633 12.5883 14.1866 12.6817Z" stroke="#171717" stroke-width="2" stroke-linecap="round" stroke-linejoin="round"/>
<path d="M8.35334 16.9867C5.53001 18.8767 5.53001 21.9567 8.35334 23.835C11.5617 25.9817 16.8233 25.9817 20.0317 23.835C22.855 21.945 22.855 18.865 20.0317 16.9867C16.835 14.8517 11.5733 14.8517 8.35334 16.9867Z" stroke="#171717" stroke-width="2" stroke-linecap="round" stroke-linejoin="round"/>
</g>
</svg>
